<!-- Generated by IcoMoon.io -->
<svg version="1.1" xmlns="http://www.w3.org/2000/svg" width="43" height="32" viewBox="0 0 43 32">
<path d="M2.107 31.928h33.793c1.171 0 2.113-0.942 2.113-2.113v-2.814c0-1.165-0.942-2.113-2.113-2.113h-0.7v-17.558l3.997-3.786c0.93 0.459 2.053 0.181 2.663-0.658 0.604-0.839 0.519-1.992-0.205-2.735-0.725-0.737-1.872-0.851-2.729-0.26-0.845 0.586-1.153 1.703-0.712 2.645l-3.013 2.856v-1.624c0-1.165-0.948-2.113-2.113-2.113h-28.16c-1.165 0-2.113 0.948-2.113 2.113v21.12h-0.706c-1.165 0-2.107 0.948-2.107 2.113v2.814c0 1.171 0.942 2.113 2.107 2.113zM40.127 0.954c0.386 0 0.706 0.314 0.706 0.7 0 0.392-0.32 0.706-0.706 0.706s-0.706-0.314-0.706-0.706c0-0.386 0.32-0.7 0.706-0.7zM4.22 3.768c0-0.386 0.314-0.706 0.706-0.706h28.16c0.386 0 0.706 0.32 0.706 0.706v2.958l-1.413 1.334v-2.886c0-0.386-0.314-0.7-0.7-0.7h-25.346c-0.386 0-0.706 0.314-0.706 0.7v17.6c0 0.392 0.32 0.706 0.706 0.706h25.346c0.386 0 0.7-0.314 0.7-0.706v-12.776l1.413-1.334v16.223h-29.573v-21.12zM10.56 12.921c-0.954-0.006-1.793 0.628-2.047 1.552-0.254 0.918 0.139 1.89 0.96 2.373 0.821 0.489 1.86 0.368 2.548-0.296l2.445 1.226c0.284 0.145 0.628 0.078 0.839-0.157l5.205-5.857 5.114 3.834c0.272 0.205 0.658 0.181 0.906-0.054l4.444-4.208v10.741h-23.934v-16.193h23.934v3.514l-4.981 4.715-5.156-3.864c-0.29-0.223-0.706-0.181-0.948 0.091l-5.277 5.935-1.968-0.984c0.012-0.085 0.024-0.169 0.024-0.254 0-1.171-0.942-2.113-2.107-2.113zM11.26 15.034c0 0.386-0.314 0.7-0.7 0.7-0.392 0-0.706-0.314-0.706-0.7 0-0.392 0.314-0.706 0.706-0.706 0.386 0 0.7 0.314 0.7 0.706zM15.487 26.294h7.040v0.706c0 0.386-0.314 0.706-0.706 0.706h-5.633c-0.386 0-0.7-0.32-0.7-0.706v-0.706zM1.407 27.001c0-0.386 0.314-0.706 0.7-0.706h11.973v0.706c0 1.165 0.942 2.113 2.107 2.113h5.633c1.165 0 2.113-0.948 2.113-2.113v-0.706h11.967c0.392 0 0.706 0.32 0.706 0.706v2.814c0 0.392-0.314 0.706-0.706 0.706h-33.793c-0.386 0-0.7-0.314-0.7-0.706v-2.814z"></path>
</svg>
