<!-- Generated by IcoMoon.io -->
<svg version="1.1" xmlns="http://www.w3.org/2000/svg" width="30" height="32" viewBox="0 0 30 32">
<path d="M29.399 22.094l-8.443-8.503 0.937-4.617c0.242 0.096 0.498 0.146 0.759 0.146h0.005c1.193 0.014 2.171-0.942 2.185-2.135 0.014-1.189-0.942-2.167-2.13-2.181-1.193-0.014-2.171 0.937-2.185 2.13-0.005 0.256 0.037 0.512 0.123 0.75l-4.96 0.608-8.091-8.137c-0.096-0.101-0.233-0.155-0.375-0.155s-0.274 0.055-0.375 0.151l-1.513 1.504c-0.206 0.21-0.206 0.549 0 0.754l0.814 0.827c-3.15 5.797-2.126 12.978 2.523 17.664 0.041 0.041 0.091 0.073 0.142 0.096-0.032 0.183-0.050 0.366-0.050 0.549v6.185h-6.4c-1.472 0.005-2.665 1.198-2.665 2.67v1.065c0 0.293 0.238 0.535 0.53 0.535h24.535c0.293 0 0.535-0.242 0.535-0.535v-1.065c-0.005-1.472-1.198-2.665-2.67-2.67h-6.4v-2.743c1.006 0.21 2.025 0.32 3.049 0.32 2.459 0 4.878-0.613 7.040-1.783l0.818 0.823c0.101 0.101 0.238 0.16 0.379 0.16 0.137 0 0.274-0.055 0.37-0.155l1.513-1.504c0.21-0.206 0.21-0.544 0-0.754zM21.906 6.231c0.416-0.416 1.093-0.411 1.509 0.005s0.411 1.093-0.005 1.509c-0.201 0.197-0.471 0.311-0.754 0.311v0c-0.59-0.005-1.065-0.485-1.061-1.074 0-0.279 0.114-0.553 0.311-0.75v0zM20.649 9.737l-0.599 2.944-1.175-1.184 1.774-1.76zM20.046 8.832l-1.92 1.911-1.486-1.495 3.406-0.416zM22.629 28.8c0.887 0 1.6 0.713 1.6 1.6v0.53h-23.465v-0.53c0-0.887 0.718-1.6 1.6-1.6h20.265zM15.163 26.665v1.065h-5.335v-1.065h5.335zM9.829 25.6v-4.055c0-1.294 1.198-2.345 2.67-2.345 1.467 0 2.665 1.051 2.665 2.345v4.055h-5.335zM16.229 23.904v-2.359c0-1.883-1.673-3.415-3.73-3.415-1.33-0.018-2.578 0.658-3.282 1.787-4.059-4.274-4.974-10.647-2.277-15.886l18.601 18.706c-2.875 1.463-6.167 1.874-9.312 1.166zM27.52 23.218l-0.754-0.754-20.302-20.425 0.754-0.754 7.931 7.982c0.005 0 0.009 0.005 0.014 0.009l13.111 13.189-0.754 0.754z"></path>
</svg>
