<!-- Generated by IcoMoon.io -->
<svg version="1.1" xmlns="http://www.w3.org/2000/svg" width="34" height="32" viewBox="0 0 34 32">
<title>apple</title>
<path fill="#afb1b8" d="M4.995 31.298c0.016 0 0.023 0 0.039 0.008 0.008 0 0.016 0.008 0.031 0.016l0.164 0.164c-0.133 0.133-0.289 0.234-0.476 0.304-0.211 0.078-0.445 0.117-0.679 0.117-0.219 0-0.437-0.031-0.64-0.109-0.179-0.062-0.343-0.164-0.476-0.289-0.14-0.133-0.242-0.289-0.312-0.453-0.078-0.187-0.109-0.382-0.109-0.578s0.039-0.398 0.117-0.578c0.070-0.172 0.187-0.328 0.328-0.453 0.148-0.133 0.32-0.226 0.515-0.297 0.203-0.070 0.429-0.109 0.656-0.101 0.211-0.008 0.414 0.023 0.609 0.094 0.172 0.062 0.328 0.148 0.46 0.258l-0.148 0.18c-0.008 0.008-0.016 0.016-0.031 0.031-0.016 0.008-0.039 0.008-0.062 0.008-0.016 0-0.039-0.008-0.055-0.016l-0.078-0.047-0.109-0.062c-0.047-0.016-0.094-0.039-0.141-0.055-0.062-0.023-0.133-0.031-0.195-0.047-0.086-0.016-0.172-0.016-0.25-0.016-0.164-0.008-0.328 0.023-0.476 0.078-0.14 0.047-0.265 0.117-0.367 0.219-0.109 0.101-0.187 0.219-0.242 0.343-0.062 0.148-0.094 0.304-0.086 0.46-0.008 0.156 0.023 0.312 0.086 0.468 0.047 0.125 0.133 0.242 0.234 0.343 0.101 0.094 0.219 0.164 0.351 0.211 0.14 0.055 0.289 0.078 0.445 0.078 0.086 0 0.172-0.008 0.258-0.016 0.141-0.016 0.273-0.055 0.39-0.125 0.062-0.031 0.117-0.070 0.172-0.117 0.023-0.016 0.047-0.023 0.078-0.023z"></path>
<path fill="#afb1b8" d="M9.912 30.478c0 0.195-0.039 0.39-0.117 0.578-0.070 0.164-0.179 0.312-0.32 0.445-0.14 0.125-0.312 0.226-0.499 0.289-0.421 0.14-0.882 0.14-1.296 0-0.187-0.062-0.359-0.164-0.5-0.289-0.141-0.133-0.25-0.289-0.328-0.453-0.148-0.375-0.148-0.78 0-1.155 0.078-0.164 0.187-0.32 0.328-0.453 0.141-0.125 0.312-0.219 0.5-0.281 0.414-0.14 0.874-0.14 1.296 0 0.187 0.070 0.359 0.164 0.499 0.297 0.14 0.125 0.25 0.273 0.32 0.445 0.078 0.18 0.117 0.382 0.117 0.578zM9.467 30.478c0-0.156-0.023-0.312-0.086-0.46-0.047-0.133-0.125-0.25-0.226-0.351-0.101-0.094-0.219-0.164-0.359-0.219-0.304-0.101-0.64-0.101-0.937 0-0.141 0.055-0.265 0.125-0.367 0.219-0.101 0.101-0.179 0.219-0.226 0.351-0.109 0.297-0.109 0.624 0 0.921 0.047 0.125 0.125 0.25 0.226 0.343 0.101 0.101 0.226 0.172 0.367 0.219 0.297 0.101 0.632 0.101 0.937 0 0.14-0.047 0.258-0.117 0.359-0.219 0.101-0.094 0.179-0.219 0.226-0.343 0.062-0.148 0.086-0.304 0.086-0.46z"></path>
<path fill="#afb1b8" d="M13.268 30.962l0.039 0.101c0.023-0.031 0.031-0.070 0.055-0.101 0.016-0.031 0.031-0.070 0.055-0.101l1.085-1.717c0.023-0.031 0.039-0.047 0.062-0.055 0.031-0.008 0.062-0.008 0.086-0.008h0.328v2.794h-0.382v-2.053c0-0.031 0-0.062 0-0.094s0-0.062 0-0.094l-1.093 1.741c-0.016 0.031-0.039 0.047-0.070 0.062-0.023 0.016-0.055 0.023-0.094 0.023h-0.055c-0.039 0-0.070-0.008-0.094-0.023-0.031-0.016-0.055-0.031-0.070-0.062l-1.124-1.748c0 0.031 0 0.062 0 0.101 0 0.031 0 0.062 0 0.086v2.053h-0.367v-2.786h0.32c0.031 0 0.062 0 0.094 0.008 0.023 0.008 0.047 0.031 0.055 0.055l1.116 1.717c0.016 0.031 0.039 0.070 0.055 0.101z"></path>
<path fill="#afb1b8" d="M17.358 30.821v1.046h-0.429v-2.786h0.952c0.18-0.008 0.359 0.016 0.531 0.062 0.14 0.031 0.265 0.094 0.375 0.172 0.094 0.078 0.164 0.172 0.211 0.273 0.055 0.117 0.078 0.234 0.070 0.359 0.008 0.117-0.023 0.242-0.078 0.351-0.047 0.109-0.125 0.203-0.226 0.281-0.109 0.086-0.242 0.148-0.375 0.187-0.172 0.047-0.343 0.070-0.515 0.062l-0.515-0.008zM17.358 30.525h0.515c0.109 0 0.226-0.016 0.328-0.047 0.086-0.023 0.172-0.062 0.242-0.117 0.062-0.055 0.109-0.117 0.14-0.187 0.039-0.070 0.055-0.148 0.055-0.234 0-0.078-0.008-0.156-0.047-0.226-0.031-0.070-0.078-0.133-0.148-0.187-0.164-0.109-0.367-0.164-0.57-0.156h-0.515v1.155z"></path>
<path fill="#afb1b8" d="M23.079 31.875h-0.336c-0.039 0-0.070-0.008-0.094-0.031-0.023-0.016-0.047-0.039-0.055-0.062l-0.289-0.671h-1.459l-0.297 0.671c-0.016 0.023-0.031 0.047-0.055 0.062-0.023 0.023-0.062 0.031-0.094 0.031h-0.336l1.272-2.794h0.445l1.296 2.794zM20.972 30.837h1.202l-0.507-1.14c-0.039-0.086-0.070-0.172-0.094-0.258l-0.055 0.14c-0.016 0.047-0.031 0.086-0.047 0.117l-0.5 1.139z"></path>
<path fill="#afb1b8" d="M24.913 29.089c0.031 0.016 0.047 0.031 0.070 0.055l1.858 2.107c0-0.039 0-0.070 0-0.101s0-0.062 0-0.094v-1.975h0.382v2.794h-0.211c-0.031 0-0.062-0.008-0.094-0.016-0.023-0.016-0.047-0.031-0.062-0.055l-1.865-2.107c0.008 0.031 0.008 0.070 0 0.101 0 0.031 0 0.055 0 0.086v1.99h-0.375v-2.794h0.226c0.023 0 0.047 0 0.070 0.008z"></path>
<path fill="#afb1b8" d="M30.361 30.759v1.116h-0.429v-1.116l-1.179-1.678h0.382c0.039 0 0.070 0.008 0.094 0.023s0.039 0.039 0.055 0.062l0.741 1.085c0.031 0.047 0.055 0.086 0.078 0.133 0.016 0.039 0.031 0.078 0.047 0.117l0.055-0.125c0.023-0.039 0.047-0.086 0.078-0.125l0.726-1.093c0.016-0.023 0.031-0.039 0.055-0.062 0.023-0.016 0.055-0.023 0.086-0.023h0.39l-1.179 1.686z"></path>
<path fill="#afb1b8" d="M13.058 24.39c0.18 0.023 0.367 0.039 0.562 0.055 2.864-1.116 5.299-2.942 6.978-5.253 1.686-2.31 2.552-4.995 2.482-7.727l-3.161-2.755c0.64 2.911 0.343 5.916-0.874 8.687-1.21 2.771-3.286 5.19-5.986 6.993z"></path>
<path fill="#afb1b8" d="M11.926 24.265l0.086 0.016c2.888-1.803 5.097-4.308 6.322-7.204 1.233-2.896 1.436-6.049 0.585-9.046l-4.503-3.918c1.819 3.223 2.552 6.821 2.115 10.388s-2.037 6.954-4.605 9.764z"></path>
<path fill="#afb1b8" d="M27.208 14.689c-0.765 3.005-2.622 5.713-5.299 7.719-0.78 0.593-1.623 1.116-2.521 1.577 2.178-0.562 4.183-1.545 5.861-2.88 1.67-1.335 2.966-2.989 3.785-4.831l-1.826-1.584z"></path>
<path fill="#afb1b8" d="M26.49 14.252l-2.599-2.263c-0.047 2.576-0.89 5.097-2.443 7.298-1.553 2.193-3.746 3.996-6.369 5.206h0.016c0.578 0 1.163-0.031 1.74-0.094 2.451-0.866 4.613-2.248 6.299-4.020s2.841-3.879 3.356-6.127z"></path>
<path fill="#afb1b8" d="M12.3 2.466l-3.106-2.708c-2.771 0.937-5.159 2.576-6.845 4.706s-2.591 4.652-2.607 7.235v0c0.016 2.857 1.124 5.627 3.145 7.875 2.029 2.256 4.862 3.848 8.055 4.542 2.849-3.013 4.511-6.743 4.761-10.638 0.242-3.887-0.952-7.75-3.403-11.013z"></path>
<path fill="#afb1b8" d="M33.67 13.83c-0.016-3.387-1.569-6.634-4.332-9.030-2.755-2.396-6.494-3.746-10.396-3.762-1.803 0-3.59 0.289-5.268 0.859l19.013 16.515c0.648-1.459 0.983-3.013 0.983-4.581z"></path>
</svg>
