<!-- Generated by IcoMoon.io -->
<svg version="1.1" xmlns="http://www.w3.org/2000/svg" width="32" height="32" viewBox="0 0 32 32">
<title>astronaut</title>
<path fill="#2196f3" d="M31.973 4.521c-0.064-0.192-0.229-0.334-0.43-0.361l-1.911-0.279-0.855-1.733c-0.178-0.361-0.777-0.361-0.955 0l-0.855 1.733-1.911 0.279c-0.201 0.027-0.37 0.169-0.434 0.361-0.059 0.192-0.009 0.407 0.137 0.549l1.381 1.349-0.325 1.902c-0.032 0.201 0.050 0.402 0.21 0.521 0.169 0.119 0.384 0.137 0.562 0.041l1.71-0.901 1.71 0.901c0.078 0.041 0.165 0.059 0.247 0.059 0.11 0 0.224-0.032 0.315-0.101 0.165-0.119 0.247-0.32 0.21-0.521l-0.325-1.902 1.381-1.349c0.146-0.142 0.197-0.357 0.137-0.549zM29.509 5.847c-0.123 0.123-0.183 0.302-0.151 0.475l0.187 1.111-1.001-0.526c-0.078-0.041-0.16-0.059-0.247-0.059s-0.169 0.018-0.247 0.059l-1.001 0.526 0.192-1.111c0.027-0.174-0.027-0.352-0.155-0.475l-0.809-0.786 1.12-0.165c0.174-0.023 0.325-0.133 0.402-0.293l0.498-1.010 0.498 1.010c0.078 0.16 0.229 0.27 0.402 0.293l1.12 0.165-0.809 0.786z"></path>
<path fill="#2196f3" d="M25.065 20.521h1.065v1.065h-1.065v-1.065z"></path>
<path fill="#2196f3" d="M25.065 22.651h1.065v1.070h-1.065v-1.070z"></path>
<path fill="#2196f3" d="M26.13 21.586h1.070v1.065h-1.070v-1.065z"></path>
<path fill="#2196f3" d="M24 21.586h1.065v1.065h-1.065v-1.065z"></path>
<path fill="#2196f3" d="M21.33 26.386h1.070v1.065h-1.070v-1.065z"></path>
<path fill="#2196f3" d="M21.33 28.521h1.070v1.065h-1.070v-1.065z"></path>
<path fill="#2196f3" d="M22.4 27.451h1.065v1.070h-1.065v-1.070z"></path>
<path fill="#2196f3" d="M20.265 27.451h1.065v1.070h-1.065v-1.070z"></path>
<path fill="#2196f3" d="M14.93 24.251h1.070v1.070h-1.070v-1.070z"></path>
<path fill="#2196f3" d="M14.93 26.386h1.070v1.065h-1.070v-1.065z"></path>
<path fill="#2196f3" d="M16 25.321h1.065v1.065h-1.065v-1.065z"></path>
<path fill="#2196f3" d="M13.865 25.321h1.065v1.065h-1.065v-1.065z"></path>
<path fill="#2196f3" d="M4.795 6.121h1.070v1.065h-1.070v-1.065z"></path>
<path fill="#2196f3" d="M4.795 8.251h1.070v1.070h-1.070v-1.070z"></path>
<path fill="#2196f3" d="M5.865 7.186h1.065v1.065h-1.065v-1.065z"></path>
<path fill="#2196f3" d="M3.73 7.186h1.065v1.065h-1.065v-1.065z"></path>
<path fill="#212121" d="M24.713 14.158c-0.288-0.389-0.709-0.64-1.189-0.704-0.48-0.069-0.955 0.055-1.339 0.352l-1.253 0.96-1.897 1.417-1.358-0.544c2.418-1.083 4.114-3.506 4.114-6.318 0-3.822-3.122-6.935-6.962-6.935s-6.962 3.113-6.962 6.935c0 1.385 0.416 2.674 1.12 3.758l-2.761-0.023c-0.005 0-0.005 0-0.009 0s-0.014 0.005-0.023 0.005c-0.050 0-0.105 0.014-0.155 0.032-0.009 0.005-0.023 0.005-0.037 0.014-0.005 0-0.014 0-0.018 0.005l-3.232 1.595c-0.005 0-0.005 0-0.005 0l-1.893 0.91c-0.018 0.009-0.041 0.023-0.064 0.037-0.754 0.503-1.010 1.49-0.599 2.295 0.224 0.43 0.599 0.745 1.056 0.891 0.178 0.055 0.361 0.082 0.539 0.082 0.293 0 0.581-0.073 0.841-0.21l1.39-0.741 2.263-1.17 1.358-0.005-5.445 5.413c0 0 0 0 0 0.005l-1.339 1.33c-0.315 0.315-0.489 0.731-0.489 1.179 0 0.443 0.174 0.864 0.489 1.179 0.325 0.32 0.754 0.485 1.179 0.485 0.43 0 0.855-0.165 1.179-0.485l1.317-1.312 1.742-1.298 0.901 0.896-1.765 1.755c0 0 0 0 0 0l-1.339 1.335c-0.315 0.315-0.489 0.731-0.489 1.179 0 0.443 0.174 0.859 0.489 1.175 0.325 0.325 0.754 0.489 1.179 0.489 0.43 0 0.855-0.165 1.179-0.489l1.339-1.33 2.144-2.135c0 0 0 0 0 0l1.010-1.001-0.005-0.005c0.009-0.005 0.018-0.009 0.023-0.014l5.166-5.659 3.47 0.494c0.027 0.005 0.050 0.005 0.078 0.005 0.064 0 0.128-0.014 0.187-0.037 0.018-0.009 0.032-0.014 0.050-0.023s0.037-0.018 0.055-0.027l3.214-2.135c0.014-0.009 0.018-0.018 0.032-0.027 0.009-0.014 0.027-0.014 0.037-0.027l1.271-1.189c0.663-0.622 0.754-1.637 0.215-2.363zM2.13 17.769c-0.174 0.091-0.37 0.11-0.562 0.050-0.183-0.059-0.338-0.187-0.425-0.357-0.16-0.315-0.069-0.695 0.215-0.905l1.312-0.631 0.315 0.923 0.137 0.389-0.992 0.53zM5.627 15.941l-1.55 0.8-0.256-0.745-0.183-0.539 2.025-1.001-0.037 1.486zM20.727 9.321c0 0.919-0.219 1.783-0.599 2.56l-4.183-1.902c-0.046-0.571-0.343-1.074-0.791-1.385l1.467-4.864c2.377 0.759 4.105 2.976 4.105 5.591zM8.937 9.321c0-3.237 2.642-5.87 5.893-5.87 0.251 0 0.503 0.023 0.745 0.055l-1.431 4.754c-0.018 0-0.037-0.009-0.059-0.009-1.033 0-1.87 0.841-1.87 1.87s0.837 1.865 1.87 1.865c0.695 0 1.298-0.384 1.618-0.946l3.863 1.755c-1.074 1.449-2.793 2.391-4.736 2.391-3.25 0-5.893-2.633-5.893-5.865zM14.894 10.121c0 0.439-0.361 0.8-0.809 0.8-0.443 0-0.805-0.361-0.805-0.8 0-0.443 0.361-0.8 0.805-0.8 0.448 0 0.809 0.357 0.809 0.8zM2.464 25.143c-0.238 0.233-0.622 0.233-0.855 0-0.114-0.11-0.178-0.261-0.178-0.421s0.064-0.311 0.178-0.421l0.96-0.96 0.85 0.846-0.955 0.955zM5.678 28.878c-0.238 0.233-0.622 0.233-0.855 0-0.114-0.114-0.178-0.265-0.178-0.421 0-0.16 0.064-0.311 0.178-0.425l0.96-0.955 0.855 0.846-0.96 0.955zM9.157 25.408c0 0 0 0 0 0l-1.765 1.76-0.402-0.398-0.448-0.448 1.76-1.755c0 0 0 0 0 0s0.005 0 0.005 0c0.037-0.041 0.064-0.091 0.087-0.137 0.009-0.014 0.023-0.027 0.027-0.041 0.018-0.041 0.018-0.082 0.027-0.128 0-0.023 0.014-0.046 0.014-0.073 0-0.037-0.014-0.069-0.023-0.105-0.005-0.032-0.005-0.064-0.018-0.096-0.018-0.050-0.055-0.091-0.091-0.137-0.009-0.009-0.014-0.027-0.023-0.037 0 0 0 0 0 0-0.005 0-0.005 0-0.005-0.005l-1.605-1.6c-0.018-0.014-0.041-0.023-0.059-0.037-0.027-0.023-0.055-0.041-0.087-0.059-0.032-0.014-0.059-0.023-0.091-0.032-0.037-0.009-0.069-0.014-0.105-0.018-0.032 0-0.064 0-0.096 0.005-0.037 0.005-0.069 0.009-0.101 0.018-0.037 0.014-0.064 0.027-0.096 0.046-0.018 0.014-0.041 0.018-0.059 0.032l-1.774 1.321-0.901-0.896 2.395-2.386 4.361 4.288-0.928 0.919zM15.977 18.391c-0.014 0-0.032 0.005-0.046 0.005-0.037-0.005-0.078 0-0.114 0.005-0.032 0.005-0.059 0.014-0.087 0.023-0.037 0.014-0.069 0.027-0.101 0.046-0.027 0.018-0.055 0.037-0.082 0.064-0.014 0.009-0.027 0.014-0.037 0.027l-4.699 5.147-4.329-4.256 2.834-2.821c0.206-0.206 0.21-0.544 0-0.754-0.105-0.105-0.242-0.155-0.379-0.155v0l-2.222 0.014 0.027-1.609 3.104 0.027c1.266 1.294 3.031 2.098 4.983 2.098 0.439 0 0.864-0.046 1.28-0.119 0.041 0.032 0.078 0.064 0.128 0.082l2.409 0.96 0.155 0.759 0.178 0.887-3.003-0.43zM20.018 18.569l-0.315-1.559 1.449-1.079 0.379 0.503 0.567 0.754-2.080 1.381zM23.771 15.739l-0.837 0.786-0.933-1.239 0.832-0.635c0.155-0.119 0.352-0.169 0.544-0.142 0.192 0.023 0.361 0.128 0.48 0.283 0.215 0.293 0.178 0.699-0.087 0.946z"></path>
<path fill="#212121" d="M13.6 18.542l-2.144-2.135c-0.206-0.206-0.544-0.206-0.75 0l-2.144 2.135c-0.101 0.101-0.155 0.238-0.155 0.379s0.055 0.279 0.155 0.375l2.144 2.135c0.101 0.105 0.238 0.155 0.375 0.155s0.274-0.050 0.375-0.155l2.144-2.135c0.101-0.096 0.155-0.233 0.155-0.375s-0.055-0.279-0.155-0.379zM11.081 20.302l-1.385-1.381 1.385-1.381 1.385 1.381-1.385 1.381z"></path>
<path fill="#212121" d="M17.161 5.070l-0.256 1.033c0.069 0.018 1.737 0.453 1.737 2.149h1.065c0-2.016-1.664-2.962-2.546-3.182z"></path>
<path fill="#212121" d="M18.642 9.321h1.065v1.065h-1.065v-1.065z"></path>
</svg>
