<!-- Generated by IcoMoon.io -->
<svg version="1.1" xmlns="http://www.w3.org/2000/svg" width="68" height="32" viewBox="0 0 68 32">
<title>box</title>
<path fill="#afb1b8" d="M34.487 14.836c-0.32-0.429-0.48-0.931-0.436-1.447v-2.095c0-0.64 0.145-1.127 0.436-1.462s0.793-0.502 1.498-0.502c0.669 0 1.142 0.145 1.425 0.429 0.305 0.364 0.451 0.807 0.415 1.251v0.495h-1.193v-0.502c0.007-0.16-0.007-0.327-0.036-0.487-0.015-0.109-0.073-0.211-0.167-0.291-0.124-0.080-0.276-0.124-0.429-0.109-0.167-0.015-0.327 0.029-0.458 0.116-0.102 0.087-0.175 0.196-0.196 0.32-0.036 0.175-0.051 0.342-0.051 0.516v2.545c-0.015 0.247 0.036 0.495 0.153 0.72 0.065 0.073 0.145 0.131 0.24 0.167s0.204 0.051 0.313 0.044c0.153 0.007 0.298-0.029 0.422-0.116 0.095-0.080 0.16-0.189 0.175-0.313 0.029-0.167 0.044-0.335 0.036-0.509v-0.516h1.193v0.473c0.036 0.465-0.109 0.931-0.407 1.316-0.276 0.313-0.742 0.473-1.433 0.473-0.684 0-1.207-0.167-1.498-0.516z"></path>
<path fill="#afb1b8" d="M39.455 14.858c-0.298-0.327-0.451-0.8-0.451-1.433v-2.204c0-0.618 0.153-1.091 0.451-1.411 0.305-0.32 0.807-0.48 1.513-0.48s1.207 0.16 1.505 0.48c0.298 0.32 0.458 0.793 0.458 1.411v2.204c0 0.625-0.16 1.105-0.465 1.433s-0.8 0.495-1.498 0.495c-0.691 0-1.207-0.167-1.513-0.495zM41.527 14.335c0.102-0.211 0.153-0.429 0.138-0.655v-2.705c0.015-0.218-0.029-0.436-0.138-0.64-0.058-0.073-0.145-0.138-0.247-0.175-0.095-0.036-0.204-0.051-0.313-0.036-0.109-0.015-0.218 0-0.313 0.036-0.102 0.044-0.189 0.102-0.247 0.175-0.109 0.204-0.16 0.422-0.145 0.64v2.72c-0.015 0.218 0.036 0.444 0.145 0.647 0.073 0.073 0.153 0.124 0.255 0.167 0.095 0.036 0.196 0.051 0.305 0.051 0.102 0 0.211-0.015 0.305-0.051 0.095-0.044 0.182-0.095 0.255-0.167v-0.007z"></path>
<path fill="#afb1b8" d="M44.364 9.396h1.287l0.96 4.065 0.989-4.065h1.251l0.124 5.876h-0.924l-0.095-4.087-0.953 4.087h-0.742l-0.989-4.102-0.095 4.102h-0.931l0.116-5.876z"></path>
<path fill="#afb1b8" d="M50.422 9.396h2c1.149 0 1.731 0.553 1.731 1.665 0 1.069-0.611 1.6-1.825 1.6h-0.684v2.611h-1.229l0.007-5.876zM52.131 11.905c0.116 0.015 0.24 0.007 0.364-0.029 0.116-0.029 0.225-0.087 0.313-0.153 0.145-0.204 0.204-0.436 0.175-0.669 0.007-0.175-0.007-0.356-0.058-0.531-0.015-0.058-0.044-0.116-0.087-0.16-0.044-0.051-0.095-0.087-0.16-0.116-0.167-0.073-0.356-0.109-0.545-0.095h-0.48v1.753h0.48z"></path>
<path fill="#afb1b8" d="M55.927 9.396h1.331l1.36 5.876h-1.149l-0.269-1.36h-1.185l-0.276 1.36h-1.171l1.36-5.876zM57.062 13.236l-0.458-2.465-0.465 2.465h0.924z"></path>
<path fill="#afb1b8" d="M59.716 9.396h0.865l1.658 3.353v-3.353h1.025v5.876h-0.822l-1.665-3.498v3.498h-1.062v-5.876z"></path>
<path fill="#afb1b8" d="M65.665 13.033l-1.375-3.629h1.156l0.844 2.327 0.785-2.327h1.135l-1.36 3.629v2.24h-1.185v-2.24z"></path>
<path fill="#afb1b8" d="M36.393 17.84v0.305h-1.004v2.385h-0.422v-2.385h-1.018v-0.305h2.444z"></path>
<path fill="#afb1b8" d="M39.556 20.531h-0.327c-0.036 0-0.065-0.007-0.095-0.022-0.022-0.022-0.044-0.044-0.051-0.065l-0.291-0.64h-1.396l-0.298 0.64c-0.007 0.029-0.022 0.051-0.044 0.073s-0.058 0.029-0.087 0.029h-0.327l1.236-2.698h0.429l1.251 2.684zM37.505 19.535h1.171l-0.495-1.098c-0.036-0.087-0.065-0.167-0.095-0.255-0.015 0.051-0.029 0.102-0.044 0.145l-0.044 0.109-0.495 1.098z"></path>
<path fill="#afb1b8" d="M41.687 20.269c0.073 0 0.153 0 0.233 0 0.065-0.007 0.131-0.022 0.196-0.036 0.058-0.007 0.116-0.029 0.175-0.044 0.058-0.022 0.109-0.044 0.167-0.073v-0.604h-0.495c-0.015 0-0.022 0-0.036 0-0.015-0.007-0.022-0.015-0.029-0.022s-0.015-0.015-0.022-0.022c0-0.007-0.007-0.015-0.007-0.022v-0.211h0.96v1.033c-0.080 0.051-0.16 0.095-0.247 0.131s-0.175 0.065-0.269 0.087c-0.102 0.029-0.211 0.044-0.313 0.058-0.116 0.007-0.24 0.015-0.356 0.015-0.218 0-0.429-0.029-0.625-0.102-0.189-0.058-0.356-0.16-0.495-0.276-0.138-0.124-0.247-0.269-0.32-0.429-0.080-0.182-0.116-0.371-0.116-0.56s0.036-0.378 0.116-0.56c0.073-0.16 0.175-0.305 0.32-0.429 0.138-0.124 0.305-0.218 0.495-0.276 0.211-0.073 0.436-0.102 0.662-0.102 0.109 0 0.225 0.007 0.342 0.022 0.102 0.015 0.196 0.036 0.291 0.073 0.087 0.022 0.175 0.058 0.247 0.102 0.080 0.044 0.153 0.087 0.218 0.145l-0.124 0.16c-0.007 0.015-0.022 0.029-0.036 0.036-0.015 0.015-0.036 0.015-0.058 0.015-0.029 0-0.051-0.007-0.073-0.015-0.036-0.022-0.080-0.044-0.124-0.065-0.051-0.029-0.109-0.058-0.167-0.073-0.073-0.029-0.145-0.051-0.225-0.058-0.102-0.022-0.211-0.029-0.313-0.029-0.167 0-0.327 0.029-0.48 0.080-0.138 0.044-0.262 0.116-0.364 0.211s-0.175 0.211-0.225 0.335c-0.109 0.291-0.109 0.604 0 0.895 0.051 0.131 0.138 0.247 0.247 0.342 0.102 0.095 0.225 0.167 0.356 0.211 0.16 0.051 0.327 0.065 0.495 0.058z"></path>
<path fill="#afb1b8" d="M45.622 20.225h1.353v0.305h-1.767v-2.691h0.422l-0.007 2.385z"></path>
<path fill="#afb1b8" d="M48.378 20.531h-0.429v-2.691h0.429v2.691z"></path>
<path fill="#afb1b8" d="M49.949 17.847c0.022 0.015 0.044 0.029 0.058 0.051l1.811 2.029c-0.007-0.029-0.007-0.058 0-0.095 0-0.029 0-0.058 0-0.087v-1.92h0.364v2.705h-0.211c-0.029 0-0.058 0-0.087-0.015s-0.051-0.029-0.073-0.051l-1.804-2.029c0 0.029 0 0.065 0 0.095s0 0.058 0 0.080v1.92h-0.349v-2.691h0.218c0.022 0 0.051 0 0.073 0.007z"></path>
<path fill="#afb1b8" d="M55.295 17.84v0.291h-1.498v0.895h1.215v0.284h-1.215v0.916h1.498v0.298h-1.935v-2.684h1.935z"></path>
<path fill="#afb1b8" d="M11.025 1.2l18.756 4.596v16.116l-18.756-4.596v-16.116zM9.818-0.175v18.276l21.164 5.185v-18.269l-21.164-5.193z"></path>
<path fill="#afb1b8" d="M21.164 31.775l-21.164-5.193v-18.276l21.164 5.193v18.276z"></path>
<path fill="#afb1b8" d="M10.167 0.996l18.516 4.538-7.869 6.8-18.524-4.545 7.876-6.793zM9.818-0.175l-9.818 8.48 21.164 5.193 9.818-8.48-21.164-5.193z"></path>
<path fill="#afb1b8" d="M22.356 30.742l8.625-7.447-8.625-2.124v9.571z"></path>
</svg>
