<!-- Generated by IcoMoon.io -->
<svg version="1.1" xmlns="http://www.w3.org/2000/svg" width="44" height="32" viewBox="0 0 44 32">
<path fill="#afb1b8" d="M3.304 26.247c0.174 0.195 0.264 0.431 0.257 0.682 0.007 0.16-0.021 0.32-0.090 0.466-0.070 0.153-0.174 0.285-0.306 0.39-0.327 0.23-0.737 0.341-1.148 0.313h-2.017v-4.306h1.976c0.39-0.021 0.779 0.077 1.092 0.285 0.132 0.097 0.23 0.223 0.299 0.362s0.097 0.292 0.090 0.445c0.007 0.237-0.070 0.473-0.23 0.661-0.153 0.167-0.369 0.285-0.605 0.334 0.271 0.049 0.508 0.174 0.682 0.369zM0.939 25.6h0.842c0.195 0.007 0.383-0.042 0.536-0.146 0.070-0.056 0.118-0.118 0.146-0.188 0.035-0.077 0.049-0.153 0.042-0.237 0-0.077-0.007-0.153-0.042-0.223-0.028-0.077-0.077-0.139-0.139-0.195-0.16-0.111-0.355-0.16-0.557-0.146h-0.828v1.134zM2.4 27.249c0.070-0.056 0.125-0.118 0.16-0.195s0.049-0.16 0.042-0.243c0.007-0.083-0.007-0.167-0.049-0.243-0.035-0.077-0.083-0.146-0.153-0.195-0.167-0.118-0.369-0.174-0.577-0.16h-0.883v1.183h0.897c0.202 0.014 0.403-0.042 0.563-0.146z"></path>
<path fill="#afb1b8" d="M7.353 28.097l-1.106-1.683h-0.41v1.683h-0.946v-4.306h1.788c0.452-0.028 0.904 0.104 1.252 0.369 0.25 0.23 0.403 0.543 0.424 0.87 0.028 0.327-0.077 0.647-0.292 0.911-0.223 0.23-0.522 0.383-0.856 0.438l1.176 1.718h-1.030zM5.837 25.83h0.772c0.543 0 0.807-0.216 0.807-0.654 0.007-0.090-0.007-0.174-0.042-0.257s-0.083-0.16-0.153-0.23c-0.174-0.125-0.39-0.188-0.612-0.174h-0.779l0.007 1.315z"></path>
<path fill="#afb1b8" d="M12.529 27.235h-1.892l-0.334 0.863h-0.988l1.732-4.257h1.071l1.725 4.257h-0.995l-0.32-0.863zM12.271 26.581l-0.689-1.823-0.689 1.823h1.377z"></path>
<path fill="#afb1b8" d="M19.005 28.097h-0.939l-2.108-2.929v2.929h-0.939v-4.306h0.939l2.108 2.943v-2.943h0.939v4.306z"></path>
<path fill="#afb1b8" d="M24.369 27.068c-0.195 0.327-0.494 0.591-0.849 0.758-0.41 0.188-0.87 0.285-1.322 0.271h-1.677v-4.306h1.677c0.452-0.014 0.911 0.083 1.322 0.264 0.355 0.167 0.654 0.431 0.849 0.751 0.195 0.348 0.292 0.737 0.292 1.134 0 0.39-0.097 0.779-0.292 1.127zM23.29 26.963c0.271-0.285 0.417-0.647 0.417-1.030 0-0.376-0.146-0.737-0.417-1.023-0.32-0.264-0.744-0.397-1.176-0.369h-0.654v2.79h0.654c0.431 0.021 0.856-0.111 1.176-0.369z"></path>
<path fill="#afb1b8" d="M13.113-0.167c0 0 12.132 4.195 11.875 10.261v10.268c0 0-12.125-4.195-11.868-10.268l-0.007-10.261z"></path>
<path fill="#afb1b8" d="M35.798 17.955c2.289-1.44 4.939-2.337 7.701-2.602v-3.207c-3.186 1.12-5.885 3.158-7.701 5.809z"></path>
<path fill="#afb1b8" d="M34.421 18.922c1.871-3.457 5.127-6.122 9.085-7.45v-9.259c0 0-17.28 5.976-16.911 14.616v14.616c0 0 0.765-0.271 1.976-0.772 0-0.466 0-0.939 0.056-1.412 0.362-4.014 2.442-7.729 5.795-10.337z"></path>
<path fill="#afb1b8" d="M32.772 24.355c0.097-1.016 0.299-2.017 0.605-2.991-2.087 2.247-3.346 5.043-3.61 7.986-0.028 0.271-0.042 0.55-0.049 0.842 0.988-0.431 2.129-0.974 3.325-1.607-0.306-1.391-0.397-2.817-0.271-4.23z"></path>
<path fill="#afb1b8" d="M33.461 24.403c-0.111 1.28-0.042 2.574 0.216 3.833 4.717-2.588 10.024-6.581 9.823-11.409v-0.424c-3.374 0.348-6.532 1.697-8.981 3.847-0.577 1.329-0.932 2.727-1.057 4.153z"></path>
</svg>
