<!-- Generated by IcoMoon.io -->
<svg version="1.1" xmlns="http://www.w3.org/2000/svg" width="32" height="32" viewBox="0 0 32 32">
<title>clock</title>
<path fill="#212121" d="M31.296 15.301c-0.005-8.453-6.857-15.305-15.31-15.301-8.453 0-15.301 6.853-15.301 15.305 0 6.661 4.306 12.553 10.647 14.578 0.064 0.018 0.123 0.027 0.187 0.027 0.123 0 0.242-0.032 0.343-0.096 0.137-0.078 0.238-0.206 0.283-0.357l3.867-12.247c1.056-0.005 1.906-0.869 1.902-1.925s-0.869-1.906-1.925-1.902c-0.283 0-0.562 0.064-0.818 0.192l-5.106-5.106c-0.251-0.247-0.658-0.238-0.901 0.014-0.238 0.247-0.238 0.64 0 0.887l5.102 5.106c-0.393 0.8-0.169 1.765 0.535 2.313l-3.68 11.671c-7.278-2.679-11.003-10.752-8.325-18.030 2.683-7.278 10.757-11.008 18.034-8.325 7.278 2.679 11.003 10.752 8.32 18.030-1.307 3.557-4 6.432-7.461 7.973l-0.398-1.874c-0.073-0.343-0.411-0.562-0.754-0.489-0.11 0.023-0.21 0.073-0.293 0.146l-3.84 3.429c-0.261 0.233-0.283 0.635-0.050 0.901 0.078 0.082 0.174 0.146 0.283 0.183l4.896 1.563c0.338 0.105 0.695-0.078 0.805-0.411 0.032-0.11 0.041-0.219 0.018-0.329l-0.393-1.838c5.664-2.391 9.344-7.945 9.33-14.089zM15.991 14.661c0.352 0 0.635 0.288 0.635 0.64s-0.283 0.635-0.635 0.635c-0.352 0-0.64-0.283-0.64-0.635s0.288-0.64 0.64-0.64zM18.089 29.527l2.185-1.952 0.603 2.843-2.789-0.891z"></path>
<path fill="#2196f3" d="M15.351 3.182v1.275c0 0.352 0.288 0.64 0.64 0.64s0.635-0.288 0.635-0.64v-1.275c0-0.352-0.283-0.635-0.635-0.635s-0.64 0.283-0.64 0.635z"></path>
<path fill="#2196f3" d="M3.872 14.661c-0.352 0-0.635 0.288-0.635 0.64s0.283 0.635 0.635 0.635h1.275c0.352 0 0.64-0.283 0.64-0.635s-0.288-0.64-0.64-0.64h-1.275z"></path>
<path fill="#2196f3" d="M28.105 15.936c0.352 0 0.64-0.283 0.64-0.635s-0.288-0.64-0.64-0.64h-1.275c-0.352 0-0.635 0.288-0.635 0.64s0.283 0.635 0.635 0.635h1.275z"></path>
</svg>
