<!-- Generated by IcoMoon.io -->
<svg version="1.1" xmlns="http://www.w3.org/2000/svg" width="25" height="32" viewBox="0 0 25 32">
<title>company</title>
<path fill="#afb1b8" d="M10.447 1.806h0.084c0.156 0 0.324 0.016 0.49 0.030 0.734 0.052 1.463 0.162 2.179 0.329v-1.762c-0.738-0.185-1.491-0.305-2.25-0.358-0.288-0.022-0.595-0.036-0.909-0.044h-0.263c-1.523 0.006-3.039 0.201-4.515 0.582-1.68 0.419-3.293 1.075-4.79 1.948v17.475c1.442-0.783 2.976-1.381 4.566-1.779 1.256-0.32 2.539-0.517 3.833-0.588h0.051c0.216-0.011 0.433-0.017 0.655-0.019v-1.79c-1.681 0.022-3.353 0.244-4.982 0.662-0.602 0.157-1.185 0.326-1.731 0.513l-0.623 0.211v-13.625l0.266-0.128c2.032-0.963 4.229-1.524 6.471-1.651 0.019-0.001 0.037-0.001 0.056 0 0.248-0.013 0.497-0.019 0.741-0.019h0.28c0.129 0.003 0.258 0.006 0.388 0.014zM13.633 3.607c0.391 0.030 0.795 0.044 1.205 0.044 1.601-0.006 3.195-0.21 4.747-0.609 1.589-0.4 3.123-0.998 4.564-1.781v17.163c-1.498 0.873-3.111 1.529-4.792 1.948-1.475 0.379-2.992 0.574-4.515 0.581-1.154 0.009-2.304-0.126-3.425-0.404v-17.275c0.265 0.061 0.537 0.117 0.814 0.164 0.455 0.077 0.934 0.133 1.401 0.167zM22.367 3.74l-0.623 0.21c-0.573 0.192-1.15 0.365-1.731 0.518-1.691 0.434-3.428 0.657-5.173 0.663-0.406 0-0.78-0.011-1.141-0.034l-0.497-0.033v14.017l0.427 0.038c0.395 0.034 0.803 0.052 1.214 0.052 1.375-0.006 2.743-0.183 4.074-0.527 1.096-0.275 2.162-0.658 3.183-1.144l0.266-0.128v-13.63z"></path>
<path fill="#afb1b8" d="M1.68 25.975c-0.086-0.092-0.197-0.166-0.314-0.215-0.123-0.049-0.246-0.074-0.375-0.068-0.142 0-0.277 0.025-0.4 0.074-0.117 0.049-0.228 0.117-0.314 0.209-0.086 0.086-0.154 0.197-0.203 0.314-0.049 0.123-0.068 0.252-0.068 0.382v2.338c-0.006 0.166 0.025 0.326 0.092 0.48 0.055 0.117 0.135 0.222 0.234 0.308 0.092 0.080 0.203 0.135 0.32 0.166 0.111 0.037 0.228 0.049 0.345 0.049 0.135 0.006 0.258-0.025 0.382-0.080 0.117-0.049 0.222-0.123 0.308-0.215s0.16-0.197 0.203-0.314c0.049-0.117 0.080-0.246 0.080-0.369v-0.265h-0.615v0.209c0.006 0.074-0.006 0.142-0.031 0.209-0.025 0.049-0.055 0.092-0.092 0.129-0.037 0.031-0.080 0.055-0.129 0.068-0.037 0.012-0.080 0.025-0.123 0.025-0.055 0.006-0.111-0.006-0.16-0.025-0.055-0.025-0.098-0.055-0.129-0.105-0.055-0.092-0.086-0.203-0.080-0.314v-2.172c-0.006-0.123 0.018-0.24 0.074-0.351 0.031-0.049 0.074-0.086 0.129-0.111s0.111-0.037 0.172-0.031c0.049 0 0.105 0.012 0.148 0.031 0.049 0.025 0.092 0.062 0.123 0.105 0.068 0.086 0.105 0.197 0.098 0.308v0.203h0.603v-0.234c0.006-0.142-0.018-0.283-0.074-0.412-0.043-0.123-0.111-0.234-0.203-0.326z"></path>
<path fill="#afb1b8" d="M5.305 25.945c-0.191-0.16-0.437-0.252-0.689-0.252-0.129 0-0.252 0.018-0.369 0.062s-0.228 0.111-0.32 0.191c-0.098 0.092-0.185 0.203-0.234 0.332-0.062 0.142-0.092 0.295-0.092 0.449v2.24c-0.006 0.16 0.025 0.314 0.092 0.455 0.055 0.123 0.135 0.228 0.234 0.314 0.092 0.086 0.203 0.154 0.32 0.197s0.24 0.068 0.369 0.068c0.123 0 0.246-0.025 0.363-0.068s0.234-0.111 0.326-0.197c0.098-0.086 0.178-0.191 0.234-0.314 0.062-0.142 0.092-0.295 0.086-0.455v-2.24c0.006-0.154-0.025-0.308-0.086-0.449-0.055-0.123-0.135-0.24-0.234-0.332zM5.022 28.966c0.006 0.062 0 0.117-0.025 0.178-0.018 0.055-0.055 0.105-0.098 0.148-0.080 0.068-0.178 0.105-0.283 0.105s-0.209-0.037-0.289-0.105c-0.043-0.043-0.074-0.092-0.098-0.148-0.018-0.062-0.031-0.117-0.025-0.178v-2.24c-0.006-0.062 0.006-0.117 0.025-0.178 0.025-0.055 0.055-0.105 0.098-0.148 0.080-0.068 0.185-0.105 0.289-0.105s0.203 0.037 0.283 0.105c0.043 0.043 0.080 0.092 0.098 0.148 0.025 0.062 0.031 0.117 0.025 0.178v2.24z"></path>
<path fill="#afb1b8" d="M10.068 29.963v-4.234h-0.585l-0.769 2.24h-0.012l-0.775-2.24h-0.585v4.234h0.609v-2.578h0.006l0.597 1.828h0.302l0.597-1.828h0.012v2.578h0.603z"></path>
<path fill="#afb1b8" d="M13.508 26.025c-0.092-0.105-0.209-0.185-0.338-0.234-0.142-0.043-0.289-0.068-0.443-0.062h-0.898v4.234h0.603v-1.655h0.314c0.185 0.012 0.375-0.031 0.542-0.111 0.142-0.080 0.252-0.191 0.332-0.326 0.074-0.111 0.117-0.24 0.142-0.369 0.025-0.16 0.031-0.32 0.031-0.48 0.006-0.203-0.012-0.412-0.062-0.609-0.037-0.148-0.117-0.277-0.222-0.388zM13.2 27.317c-0.006 0.074-0.025 0.154-0.055 0.222-0.037 0.062-0.092 0.117-0.16 0.148-0.086 0.037-0.185 0.055-0.283 0.055h-0.277v-1.446h0.314c0.092 0 0.185 0.018 0.271 0.055 0.062 0.037 0.111 0.092 0.142 0.154 0.031 0.080 0.049 0.16 0.055 0.24 0 0.086 0 0.185 0 0.283s0.006 0.197 0 0.289h-0.006z"></path>
<path fill="#afb1b8" d="M16.369 25.729h-0.492l-0.935 4.234h0.603l0.178-0.911h0.825l0.178 0.911h0.603l-0.96-4.234zM15.815 28.48l0.295-1.538h0.012l0.295 1.538h-0.603z"></path>
<path fill="#afb1b8" d="M20.271 28.283h-0.006l-0.917-2.554h-0.578v4.234h0.603v-2.548h0.012l0.923 2.548h0.572v-4.234h-0.609v2.554z"></path>
<path fill="#afb1b8" d="M23.963 25.729l-0.486 1.68h-0.012l-0.486-1.68h-0.64l0.831 2.443v1.791h0.603v-1.791l0.831-2.443h-0.64z"></path>
<path fill="#afb1b8" d="M0 31.163h0.289v0.818h0.197v-0.818h0.289v-0.166h-0.775v0.166z"></path>
<path fill="#afb1b8" d="M2.443 30.997l-0.382 0.985h0.209l0.080-0.228h0.394l0.086 0.228h0.215l-0.394-0.985h-0.209zM2.412 31.588l0.135-0.363 0.135 0.363h-0.271z"></path>
<path fill="#afb1b8" d="M4.862 31.618h0.228v0.123c-0.068 0.055-0.148 0.086-0.234 0.086-0.037 0-0.080-0.006-0.117-0.025-0.031-0.012-0.068-0.037-0.092-0.068-0.049-0.080-0.074-0.166-0.074-0.258 0-0.222 0.098-0.332 0.289-0.332 0.049 0 0.098 0.012 0.135 0.037 0.043 0.031 0.074 0.074 0.086 0.123l0.191-0.037c-0.037-0.197-0.178-0.289-0.412-0.289-0.129-0.006-0.252 0.043-0.345 0.123-0.049 0.049-0.092 0.111-0.117 0.178-0.025 0.062-0.031 0.135-0.025 0.203-0.006 0.135 0.037 0.265 0.123 0.369 0.049 0.049 0.105 0.086 0.172 0.111 0.062 0.025 0.135 0.037 0.203 0.031 0.154 0.006 0.302-0.049 0.418-0.154v-0.388h-0.431v0.166z"></path>
<path fill="#afb1b8" d="M7.335 30.997h-0.203v0.985h0.689v-0.166h-0.486v-0.818z"></path>
<path fill="#afb1b8" d="M9.225 30.997h0.197v0.985h-0.197v-0.985z"></path>
<path fill="#afb1b8" d="M11.465 31.655l-0.4-0.658h-0.197v0.985h0.185v-0.646l0.4 0.646h0.197v-0.985h-0.185v0.658z"></path>
<path fill="#afb1b8" d="M13.311 31.545h0.492v-0.166h-0.492v-0.215h0.529v-0.166h-0.726v0.985h0.745v-0.166h-0.548v-0.271z"></path>
<path fill="#afb1b8" d="M17.791 31.385h-0.388v-0.388h-0.197v0.985h0.197v-0.431h0.388v0.431h0.197v-0.985h-0.197v0.388z"></path>
<path fill="#afb1b8" d="M19.649 31.545h0.486v-0.166h-0.486v-0.215h0.529v-0.166h-0.732v0.985h0.751v-0.166h-0.548v-0.271z"></path>
<path fill="#afb1b8" d="M22.166 31.545c0.172-0.025 0.258-0.117 0.258-0.271 0.006-0.043 0-0.086-0.018-0.123s-0.043-0.074-0.080-0.098c-0.086-0.043-0.191-0.062-0.289-0.055h-0.412v0.985h0.197v-0.412h0.037c0.043-0.006 0.086 0.006 0.123 0.018 0.031 0.018 0.055 0.043 0.068 0.074l0.215 0.314h0.24l-0.123-0.191c-0.049-0.098-0.129-0.178-0.215-0.24zM21.963 31.409h-0.142v-0.246h0.154c0.068-0.006 0.135 0 0.203 0.025 0.012 0.012 0.025 0.025 0.031 0.043s0.012 0.037 0.012 0.055c-0.006 0.025-0.006 0.043-0.018 0.055-0.006 0.018-0.018 0.031-0.037 0.043-0.062 0.025-0.135 0.031-0.203 0.025z"></path>
<path fill="#afb1b8" d="M24.062 31.545h0.492v-0.166h-0.492v-0.215h0.529v-0.166h-0.726v0.985h0.751v-0.166h-0.554v-0.271z"></path>
</svg>
