<!-- Generated by IcoMoon.io -->
<svg version="1.1" xmlns="http://www.w3.org/2000/svg" width="32" height="32" viewBox="0 0 32 32">
<title>diagram</title>
<path fill="#2196f3" d="M14.921 14.962h1.070v4.795h-1.070v-4.795z"></path>
<path fill="#2196f3" d="M19.186 17.093h1.070v2.665h-1.070v-2.665z"></path>
<path fill="#2196f3" d="M10.661 18.693h1.065v1.065h-1.065v-1.065z"></path>
<path fill="#2196f3" d="M7.461 18.162h1.065v1.595h-1.065v-1.595z"></path>
<path fill="#212121" d="M1.595 28.288h25.586c0.887 0 1.6-0.713 1.6-1.6v-2.13c0-0.882-0.713-1.6-1.6-1.6h-0.53v-13.294l3.026-2.866c0.704 0.347 1.554 0.137 2.016-0.498 0.457-0.635 0.393-1.509-0.155-2.071-0.549-0.558-1.417-0.645-2.066-0.197-0.64 0.443-0.873 1.289-0.539 2.002l-2.281 2.162v-1.23c0-0.882-0.718-1.6-1.6-1.6h-21.321c-0.882 0-1.6 0.718-1.6 1.6v15.991h-0.535c-0.882 0-1.595 0.718-1.595 1.6v2.13c0 0.887 0.713 1.6 1.595 1.6zM30.382 4.837c0.293 0 0.535 0.238 0.535 0.53 0 0.297-0.242 0.535-0.535 0.535s-0.535-0.238-0.535-0.535c0-0.293 0.242-0.53 0.535-0.53zM3.195 6.967c0-0.293 0.238-0.535 0.535-0.535h21.321c0.293 0 0.535 0.242 0.535 0.535v2.24l-1.070 1.010v-2.185c0-0.293-0.238-0.53-0.53-0.53h-19.191c-0.293 0-0.535 0.238-0.535 0.53v13.326c0 0.297 0.242 0.535 0.535 0.535h19.191c0.293 0 0.53-0.238 0.53-0.535v-9.673l1.070-1.010v12.283h-22.391v-15.991zM7.995 13.897c-0.722-0.005-1.358 0.475-1.55 1.175-0.192 0.695 0.105 1.431 0.727 1.797 0.622 0.37 1.408 0.279 1.929-0.224l1.851 0.928c0.215 0.11 0.475 0.059 0.635-0.119l3.941-4.434 3.872 2.903c0.206 0.155 0.498 0.137 0.686-0.041l3.365-3.186v8.133h-18.121v-12.261h18.121v2.661l-3.771 3.57-3.904-2.926c-0.219-0.169-0.535-0.137-0.718 0.069l-3.995 4.494-1.49-0.745c0.009-0.064 0.018-0.128 0.018-0.192 0-0.887-0.713-1.6-1.595-1.6zM8.526 15.497c0 0.293-0.238 0.53-0.53 0.53-0.297 0-0.535-0.238-0.535-0.53 0-0.297 0.238-0.535 0.535-0.535 0.293 0 0.53 0.238 0.53 0.535zM11.726 24.023h5.33v0.535c0 0.293-0.238 0.535-0.535 0.535h-4.265c-0.293 0-0.53-0.242-0.53-0.535v-0.535zM1.065 24.558c0-0.293 0.238-0.535 0.53-0.535h9.065v0.535c0 0.882 0.713 1.6 1.595 1.6h4.265c0.882 0 1.6-0.718 1.6-1.6v-0.535h9.061c0.297 0 0.535 0.242 0.535 0.535v2.13c0 0.297-0.238 0.535-0.535 0.535h-25.586c-0.293 0-0.53-0.238-0.53-0.535v-2.13z"></path>
</svg>
