<!-- Generated by IcoMoon.io -->
<svg version="1.1" xmlns="http://www.w3.org/2000/svg" width="43" height="32" viewBox="0 0 43 32">
<path fill="#2196f3" d="M38.667 0h-34.667c-2.213 0-4 1.787-4 4v24c0 2.187 1.787 4 4 4h34.667c2.187 0 4-1.813 4-4v-24c0-2.213-1.813-4-4-4zM38.667 2.667c0.16 0 0.347 0.027 0.507 0.080l-17.84 15.467-17.867-15.467c0.16-0.053 0.347-0.080 0.533-0.080h34.667zM38.667 29.333h-34.667c-0.747 0-1.333-0.613-1.333-1.333v-22.427l17.787 15.413c0.24 0.213 0.56 0.347 0.88 0.347 0.293 0 0.613-0.133 0.853-0.347l17.813-15.413v22.427c0 0.72-0.613 1.333-1.333 1.333z"></path>
</svg>
