<!-- Generated by IcoMoon.io -->
<svg version="1.1" xmlns="http://www.w3.org/2000/svg" width="66" height="32" viewBox="0 0 66 32">
<title>foster</title>
<path fill="#2196f3" d="M10.256 9.444v0c1.873 0 3.387 1.35 3.387 3.013v0c0 1.662-1.514 3.013-3.387 3.013v0c-1.873 0-3.387-1.35-3.387-3.013v0c0-1.662 1.514-3.013 3.387-3.013z"></path>
<path fill="#2196f3" d="M35.27 8.476c-0.008-2.31-1.038-4.519-2.88-6.158-1.834-1.631-4.324-2.552-6.931-2.56v0c-2.599 0.008-5.089 0.929-6.931 2.56-1.834 1.639-2.872 3.848-2.88 6.158v12.745c0 0 19.621-1.943 19.621-12.738v-0.008z"></path>
<path fill="#2196f3" d="M0 25.397c0 1.608 0.718 3.153 1.998 4.285 1.28 1.14 3.013 1.779 4.823 1.787 1.811-0.008 3.543-0.648 4.816-1.779 1.28-1.14 2.006-2.677 2.006-4.285v-8.866c0 0-13.643 1.35-13.643 8.859zM6.821 26.989c-0.351 0-0.702-0.094-0.991-0.265-0.297-0.18-0.523-0.421-0.663-0.718-0.133-0.289-0.164-0.609-0.101-0.913 0.070-0.312 0.242-0.593 0.492-0.812 0.25-0.226 0.57-0.375 0.913-0.437 0.351-0.062 0.71-0.031 1.038 0.086 0.32 0.125 0.601 0.328 0.796 0.585 0.195 0.265 0.304 0.57 0.304 0.882 0 0.211-0.047 0.421-0.133 0.617-0.094 0.187-0.226 0.367-0.39 0.515s-0.359 0.265-0.578 0.343c-0.219 0.078-0.453 0.125-0.687 0.125v-0.008z"></path>
<path fill="#2196f3" d="M23.735 26.747q0.18-0.367 0.18-0.859v-0.148q0-0.492-0.18-0.866-0.133-0.281-0.351-0.468-0.070-0.055-0.148-0.109-0.070-0.039-0.14-0.070-0.273-0.125-0.601-0.125t-0.601 0.125q-0.070 0.031-0.14 0.070-0.078 0.055-0.148 0.109-0.219 0.187-0.351 0.468-0.18 0.375-0.18 0.866v0.164q0.008 0.476 0.187 0.851 0.125 0.265 0.336 0.445 0.078 0.070 0.164 0.125 0.070 0.039 0.148 0.078 0.273 0.117 0.593 0.117 0.336 0 0.609-0.133 0.070-0.031 0.133-0.070 0.086-0.055 0.172-0.125 0.195-0.18 0.32-0.445zM26.076 26.388q0.062 0.086 0.062 0.211 0 0.101-0.047 0.18-0.031 0.055-0.094 0.101-0.133 0.101-0.382 0.101-0.382 0-0.546-0.195-0.109-0.133-0.109-0.359h-0.687q0 0.242 0.094 0.437 0.031 0.070 0.070 0.133 0 0 0.008 0.008 0.164 0.234 0.476 0.375t0.695 0.14q0.554 0 0.882-0.242 0.14-0.109 0.219-0.25 0.109-0.187 0.109-0.429 0-0.219-0.086-0.398-0.062-0.14-0.18-0.25-0.273-0.265-0.859-0.437-0.312-0.101-0.476-0.211-0.117-0.078-0.148-0.18-0.016-0.047-0.016-0.094 0-0.086 0.031-0.148 0.039-0.078 0.109-0.133 0.14-0.101 0.39-0.101 0.258 0 0.406 0.125 0.031 0.031 0.062 0.070 0.078 0.117 0.078 0.289h0.687q0-0.211-0.070-0.382-0.039-0.078-0.086-0.156-0.031-0.047-0.070-0.094-0.14-0.172-0.359-0.273-0.281-0.125-0.64-0.125-0.351 0-0.64 0.117-0.281 0.117-0.437 0.328-0.062 0.086-0.094 0.187-0.055 0.14-0.055 0.297t0.047 0.297q0.125 0.312 0.523 0.531 0.203 0.109 0.562 0.226t0.492 0.219q0.047 0.039 0.078 0.086zM52.862 26.388q0.062 0.086 0.062 0.211 0 0.101-0.047 0.18-0.031 0.055-0.094 0.101-0.141 0.101-0.382 0.101-0.382 0-0.546-0.195-0.109-0.133-0.109-0.359h-0.687q0 0.242 0.086 0.437 0.031 0.070 0.078 0.133 0 0 0.008 0.008 0.164 0.234 0.468 0.375 0.32 0.14 0.702 0.14 0.554 0 0.882-0.242 0.141-0.109 0.219-0.25 0.109-0.187 0.109-0.429 0-0.219-0.086-0.398-0.070-0.14-0.179-0.25-0.273-0.265-0.859-0.437-0.312-0.101-0.476-0.211-0.117-0.078-0.156-0.18-0.008-0.047-0.008-0.094 0-0.086 0.031-0.148 0.031-0.078 0.109-0.133 0.133-0.101 0.39-0.101t0.398 0.125q0.039 0.031 0.070 0.070 0.078 0.117 0.078 0.289h0.687q0-0.211-0.078-0.382-0.031-0.078-0.078-0.156-0.031-0.047-0.070-0.094-0.141-0.172-0.359-0.273-0.281-0.125-0.64-0.125-0.351 0-0.64 0.117-0.281 0.117-0.437 0.328-0.062 0.086-0.094 0.187-0.055 0.14-0.055 0.297t0.047 0.297q0.125 0.312 0.515 0.531 0.211 0.109 0.57 0.226 0.351 0.117 0.492 0.219 0.047 0.039 0.078 0.086zM19.301 26.115h1.311v-0.554h-1.311v-0.859h1.475v-0.554h-2.162v3.325h0.687v-1.358zM28.777 24.702h1.022v-0.554h-2.716v0.554h1.007v2.771h0.687v-2.771zM30.876 26.029h1.311v-0.539h-1.311v-0.788h1.538v-0.554h-2.224v3.325h2.232v-0.546h-1.545v-0.898zM33.506 26.256h0.546l0.624 1.218h0.734v-0.031l-0.718-1.358q0.297-0.133 0.445-0.367 0.148-0.226 0.148-0.562t-0.156-0.57q-0.062-0.094-0.164-0.18-0.32-0.258-0.905-0.258h-1.241v3.325h0.687v-1.218zM37.659 27.473v-1.171h0.601q0.593 0 0.929-0.281 0.117-0.101 0.195-0.226 0.141-0.226 0.141-0.546 0-0.258-0.094-0.468-0.023-0.055-0.055-0.109-0.047-0.070-0.109-0.14-0.133-0.148-0.336-0.25-0.281-0.133-0.656-0.133h-1.303v3.325h0.687zM40.679 26.029h1.319v-0.539h-1.319v-0.788h1.545v-0.554h-2.232v3.325h2.232v-0.546h-1.545v-0.898zM44.16 24.702h1.022v-0.554h-2.716v0.554h1.007v2.771h0.687v-2.771zM46.26 26.029h1.319v-0.539h-1.319v-0.788h1.538v-0.554h-2.224v3.325h2.232v-0.546h-1.545v-0.898zM48.89 26.256h0.546l0.624 1.218h0.741v-0.031l-0.726-1.358q0.304-0.133 0.453-0.367 0.148-0.226 0.148-0.562t-0.156-0.57q-0.070-0.094-0.164-0.18-0.32-0.258-0.913-0.258h-1.233v3.325h0.679v-1.218zM23.032 24.937q0.187 0.273 0.187 0.796v0.164q-0.008 0.523-0.187 0.788-0.086 0.125-0.195 0.187-0.148 0.086-0.336 0.086-0.195 0-0.336-0.086-0.125-0.070-0.203-0.195-0.187-0.281-0.187-0.788v-0.164q0-0.523 0.187-0.788 0.078-0.117 0.195-0.187 0.14-0.086 0.336-0.086t0.336 0.086q0.117 0.070 0.203 0.187zM34.060 25.701h-0.554v-0.999h0.554q0.273 0 0.406 0.133 0.023 0.023 0.039 0.047 0.094 0.125 0.094 0.328 0 0.172-0.078 0.289-0.031 0.039-0.062 0.070 0 0-0.008 0.008-0.141 0.125-0.39 0.125zM38.275 25.748h-0.617v-1.046h0.632q0.203 0 0.336 0.101 0.031 0.023 0.062 0.055t0.055 0.070q0.086 0.133 0.086 0.32 0 0.195-0.086 0.312-0.023 0.031-0.055 0.055-0.141 0.133-0.414 0.133zM49.444 25.701h-0.554v-0.999h0.554q0.273 0 0.414 0.133 0.016 0.023 0.031 0.047 0.101 0.125 0.101 0.328 0 0.172-0.086 0.289-0.023 0.039-0.055 0.070-0.008 0-0.008 0.008-0.141 0.125-0.398 0.125z"></path>
</svg>
