<!-- Generated by IcoMoon.io -->
<svg version="1.1" xmlns="http://www.w3.org/2000/svg" width="29" height="32" viewBox="0 0 29 32">
<path d="M28.832 13.317c-0.336-0.453-0.827-0.747-1.387-0.821-0.56-0.080-1.115 0.064-1.563 0.411l-1.461 1.12-2.213 1.653-1.584-0.635c2.821-1.264 4.8-4.091 4.8-7.371 0-4.459-3.643-8.091-8.123-8.091s-8.123 3.632-8.123 8.091c0 1.616 0.485 3.12 1.307 4.384l-3.221-0.027c-0.005 0-0.005 0-0.011 0s-0.016 0.005-0.027 0.005c-0.059 0-0.123 0.016-0.181 0.037-0.011 0.005-0.027 0.005-0.043 0.016-0.005 0-0.016 0-0.021 0.005l-3.771 1.861c-0.005 0-0.005 0-0.005 0l-2.208 1.061c-0.021 0.011-0.048 0.027-0.075 0.043-0.88 0.587-1.179 1.739-0.699 2.677 0.261 0.501 0.699 0.869 1.232 1.040 0.208 0.064 0.421 0.096 0.629 0.096 0.341 0 0.677-0.085 0.981-0.245l1.621-0.864 2.64-1.365 1.584-0.005-6.352 6.315c0 0 0 0 0 0.005l-1.563 1.552c-0.368 0.368-0.571 0.853-0.571 1.376 0 0.517 0.203 1.008 0.571 1.376 0.379 0.373 0.88 0.565 1.376 0.565 0.501 0 0.997-0.192 1.376-0.565l1.536-1.531 2.032-1.515 1.051 1.045-2.059 2.048c0 0 0 0 0 0l-1.563 1.557c-0.368 0.368-0.571 0.853-0.571 1.376 0 0.517 0.203 1.003 0.571 1.371 0.379 0.379 0.88 0.571 1.376 0.571 0.501 0 0.997-0.192 1.376-0.571l1.563-1.552 2.501-2.491c0 0 0 0 0 0l1.179-1.168-0.005-0.005c0.011-0.005 0.021-0.011 0.027-0.016l6.027-6.603 4.048 0.576c0.032 0.005 0.059 0.005 0.091 0.005 0.075 0 0.149-0.016 0.219-0.043 0.021-0.011 0.037-0.016 0.059-0.027s0.043-0.021 0.064-0.032l3.749-2.491c0.016-0.011 0.021-0.021 0.037-0.032 0.011-0.016 0.032-0.016 0.043-0.032l1.483-1.387c0.773-0.725 0.88-1.909 0.251-2.757zM2.485 17.531c-0.203 0.107-0.432 0.128-0.656 0.059-0.213-0.069-0.395-0.219-0.496-0.416-0.187-0.368-0.080-0.811 0.251-1.056l1.531-0.736 0.368 1.077 0.16 0.453-1.157 0.619zM6.565 15.397l-1.808 0.933-0.299-0.869-0.213-0.629 2.363-1.168-0.043 1.733zM24.181 7.675c0 1.072-0.256 2.080-0.699 2.987l-4.88-2.219c-0.053-0.667-0.4-1.253-0.923-1.616l1.712-5.675c2.773 0.885 4.789 3.472 4.789 6.523zM10.427 7.675c0-3.776 3.083-6.848 6.875-6.848 0.293 0 0.587 0.027 0.869 0.064l-1.669 5.547c-0.021 0-0.043-0.011-0.069-0.011-1.205 0-2.181 0.981-2.181 2.181s0.976 2.176 2.181 2.176c0.811 0 1.515-0.448 1.888-1.104l4.507 2.048c-1.253 1.691-3.259 2.789-5.525 2.789-3.792 0-6.875-3.072-6.875-6.843zM17.376 8.608c0 0.512-0.421 0.933-0.944 0.933-0.517 0-0.939-0.421-0.939-0.933 0-0.517 0.421-0.933 0.939-0.933 0.523 0 0.944 0.416 0.944 0.933zM2.875 26.133c-0.277 0.272-0.725 0.272-0.997 0-0.133-0.128-0.208-0.304-0.208-0.491s0.075-0.363 0.208-0.491l1.12-1.12 0.992 0.987-1.115 1.115zM6.624 30.491c-0.277 0.272-0.725 0.272-0.997 0-0.133-0.133-0.208-0.309-0.208-0.491 0-0.187 0.075-0.363 0.208-0.496l1.12-1.115 0.997 0.987-1.12 1.115zM10.683 26.443c0 0 0 0 0 0l-2.059 2.053-0.469-0.464-0.523-0.523 2.053-2.048c0 0 0 0 0 0s0.005 0 0.005 0c0.043-0.048 0.075-0.107 0.101-0.16 0.011-0.016 0.027-0.032 0.032-0.048 0.021-0.048 0.021-0.096 0.032-0.149 0-0.027 0.016-0.053 0.016-0.085 0-0.043-0.016-0.080-0.027-0.123-0.005-0.037-0.005-0.075-0.021-0.112-0.021-0.059-0.064-0.107-0.107-0.16-0.011-0.011-0.016-0.032-0.027-0.043 0 0 0 0 0 0-0.005 0-0.005 0-0.005-0.005l-1.872-1.867c-0.021-0.016-0.048-0.027-0.069-0.043-0.032-0.027-0.064-0.048-0.101-0.069-0.037-0.016-0.069-0.027-0.107-0.037-0.043-0.011-0.080-0.016-0.123-0.021-0.037 0-0.075 0-0.112 0.005-0.043 0.005-0.080 0.011-0.117 0.021-0.043 0.016-0.075 0.032-0.112 0.053-0.021 0.016-0.048 0.021-0.069 0.037l-2.069 1.541-1.051-1.045 2.795-2.784 5.088 5.003-1.083 1.072zM18.64 18.256c-0.016 0-0.037 0.005-0.053 0.005-0.043-0.005-0.091 0-0.133 0.005-0.037 0.005-0.069 0.016-0.101 0.027-0.043 0.016-0.080 0.032-0.117 0.053-0.032 0.021-0.064 0.043-0.096 0.075-0.016 0.011-0.032 0.016-0.043 0.032l-5.483 6.005-5.051-4.965 3.307-3.291c0.24-0.24 0.245-0.635 0-0.88-0.123-0.123-0.283-0.181-0.443-0.181v0l-2.592 0.016 0.032-1.877 3.621 0.032c1.477 1.509 3.536 2.448 5.813 2.448 0.512 0 1.008-0.053 1.493-0.139 0.048 0.037 0.091 0.075 0.149 0.096l2.811 1.12 0.181 0.885 0.208 1.035-3.504-0.501zM23.355 18.464l-0.368-1.819 1.691-1.259 0.443 0.587 0.661 0.88-2.427 1.611zM27.733 15.163l-0.976 0.917-1.088-1.445 0.971-0.741c0.181-0.139 0.411-0.197 0.635-0.165 0.224 0.027 0.421 0.149 0.56 0.331 0.251 0.341 0.208 0.816-0.101 1.104z"></path>
</svg>
