<!-- Generated by IcoMoon.io -->
<svg version="1.1" xmlns="http://www.w3.org/2000/svg" width="20" height="32" viewBox="0 0 20 32">
<path fill="#757575" d="M17 0h-14c-1.66 0-3 1.34-3 3v26c0 1.64 1.34 3 3 3h14c1.64 0 3-1.36 3-3v-26c0-1.66-1.36-3-3-3zM3 2h14c0.54 0 1 0.44 1 1v21h-16v-21c0-0.56 0.44-1 1-1zM17 30h-14c-0.56 0-1-0.46-1-1v-3h16v3c0 0.54-0.46 1-1 1z"></path>
<path fill="#757575" d="M4.7 27.46c0.38 0.38 0.38 0.96 0 1.32-0.4 0.38-1.020 0.38-1.42 0-0.38-0.36-0.38-0.94 0-1.32 0.4-0.36 1.020-0.36 1.42 0z"></path>
</svg>
